<svg width="340" height="180" viewBox="0 0 340 180" fill="none" xmlns="http://www.w3.org/2000/svg">
<path d="M9.6626 39.2974C9.6626 44.4162 11.1706 48.4697 14.1865 51.458C17.2301 54.4186 21.3529 55.8989 26.5547 55.8989C31.7565 55.8989 35.8654 54.4186 38.8813 51.458C41.8973 48.4697 43.4053 44.4162 43.4053 39.2974C43.4053 34.1509 41.8973 30.0973 38.8813 27.1367C35.8654 24.1484 31.7565 22.6543 26.5547 22.6543C21.3529 22.6543 17.2301 24.1484 14.1865 27.1367C11.1706 30.125 9.6626 34.1785 9.6626 39.2974ZM1.07129 39.2974C1.07129 31.9373 3.38167 26.0438 8.00244 21.6167C12.6232 17.1896 18.8073 14.9761 26.5547 14.9761C34.3021 14.9761 40.4723 17.1896 45.0654 21.6167C49.6585 26.0161 51.9551 31.9097 51.9551 39.2974C51.9551 46.6851 49.6585 52.5924 45.0654 57.0195C40.4723 61.4189 34.3021 63.6187 26.5547 63.6187C18.8073 63.6187 12.6232 61.4189 8.00244 57.0195C3.38167 52.5924 1.07129 46.6851 1.07129 39.2974ZM69.5527 39.4634C69.5527 44.5269 71.0469 48.5112 74.0352 51.4165C77.0234 54.3218 81.0908 55.7744 86.2373 55.7744C91.3838 55.7744 95.4235 54.3356 98.3564 51.458C101.317 48.5527 102.797 44.5545 102.797 39.4634C102.797 34.3999 101.317 30.4155 98.3564 27.5103C95.4235 24.605 91.3838 23.1523 86.2373 23.1523C81.0908 23.1523 77.0234 24.6188 74.0352 27.5518C71.0469 30.457 69.5527 34.4276 69.5527 39.4634ZM61.335 0.615723H69.5527V23.4844C71.9046 20.8281 74.4917 18.8636 77.314 17.5908C80.1639 16.318 83.415 15.6816 87.0674 15.6816C94.3167 15.6816 100.196 17.8813 104.707 22.2808C109.217 26.6802 111.472 32.4077 111.472 39.4634C111.472 46.5467 109.217 52.3019 104.707 56.729C100.196 61.1561 94.3444 63.3696 87.1504 63.3696C83.498 63.3696 80.2192 62.7194 77.314 61.4189C74.4087 60.0908 71.8216 58.071 69.5527 55.3594V62H61.335V0.615723ZM121.184 16.5117H129.401V64.5317C129.401 69.6506 128.308 73.2061 126.123 75.1982C123.964 77.2181 120.132 78.228 114.626 78.228C113.685 78.228 112.966 78.2142 112.468 78.1865C111.97 78.1865 111.499 78.1727 111.057 78.145V70.4253C111.416 70.4806 111.79 70.5221 112.177 70.5498C112.565 70.5775 113.132 70.5913 113.879 70.5913C116.341 70.5913 118.168 70.0656 119.357 69.0142C120.575 67.9627 121.184 66.3579 121.184 64.1997V16.5117ZM129.401 10.5767H121.184V0.615723H129.401V10.5767ZM148.452 35.064H180.493C179.856 31.1903 178.113 28.1605 175.263 25.9746C172.441 23.7611 168.858 22.6543 164.514 22.6543C160.197 22.6543 156.614 23.7611 153.764 25.9746C150.914 28.1605 149.143 31.1903 148.452 35.064ZM148.203 40.916V41.248C148.203 45.5645 149.711 49.0923 152.727 51.8315C155.77 54.5431 159.699 55.8989 164.514 55.8989C168.111 55.8989 171.182 55.1795 173.728 53.7407C176.273 52.3019 178.016 50.3236 178.957 47.8057H188.586C186.953 52.7861 184.021 56.6737 179.787 59.4683C175.581 62.2352 170.49 63.6187 164.514 63.6187C156.932 63.6187 150.873 61.4189 146.335 57.0195C141.797 52.5924 139.528 46.6851 139.528 39.2974C139.528 31.9097 141.797 26.0161 146.335 21.6167C150.873 17.1896 156.932 14.9761 164.514 14.9761C172.261 14.9761 178.334 17.1343 182.734 21.4507C187.133 25.7671 189.333 31.716 189.333 39.2974V40.916H148.203ZM234.821 31.5776C233.991 28.783 232.4 26.5972 230.048 25.02C227.696 23.4429 224.86 22.6543 221.54 22.6543C216.338 22.6543 212.215 24.1484 209.172 27.1367C206.156 30.125 204.648 34.1785 204.648 39.2974C204.648 44.3055 206.142 48.3314 209.13 51.375C212.119 54.391 216.062 55.8989 220.959 55.8989C224.694 55.8989 227.835 54.9167 230.38 52.9521C232.954 50.96 234.517 48.3037 235.07 44.9834H243.745C242.749 50.7663 240.189 55.3179 236.066 58.6382C231.944 61.9585 226.797 63.6187 220.627 63.6187C213.35 63.6187 207.429 61.3636 202.863 56.8535C198.326 52.3434 196.057 46.4914 196.057 39.2974C196.057 32.0757 198.339 26.2236 202.905 21.7412C207.47 17.2311 213.433 14.9761 220.793 14.9761C226.742 14.9761 231.75 16.4702 235.817 19.4585C239.885 22.4468 242.403 26.4865 243.371 31.5776H234.821ZM266.655 50.7939C266.655 52.7308 267.07 54.1143 267.9 54.9443C268.758 55.7467 270.183 56.1479 272.175 56.1479C272.922 56.1479 273.738 56.0926 274.624 55.9819C275.537 55.8436 276.56 55.6361 277.695 55.3594V62.8301C275.73 63.1344 274.195 63.342 273.088 63.4526C272.009 63.5633 271.027 63.6187 270.141 63.6187C266.129 63.6187 263.155 62.7609 261.218 61.0454C259.281 59.3299 258.312 56.7013 258.312 53.1597V23.6504H250.427V16.5117H258.312V4.97363H266.655V16.5117H277.695V23.6504H266.655V50.7939ZM317.58 11.3237V33.7773H339.494V39.5464H317.58V62H311.687V39.5464H289.772V33.7773H311.687V11.3237H317.58ZM17.1333 151.794C17.1333 153.731 17.5483 155.114 18.3784 155.944C19.2362 156.747 20.6611 157.148 22.6533 157.148C23.4004 157.148 24.2166 157.093 25.1021 156.982C26.0151 156.844 27.0389 156.636 28.1733 156.359V163.83C26.2088 164.134 24.6732 164.342 23.5664 164.453C22.4873 164.563 21.505 164.619 20.6196 164.619C16.6076 164.619 13.6331 163.761 11.6963 162.045C9.75944 160.33 8.79102 157.701 8.79102 154.16V124.65H0.905273V117.512H8.79102V105.974H17.1333V117.512H28.1733V124.65H17.1333V151.794ZM35.7271 163V101.616H43.9033V125.356C46.3936 122.312 49.1882 120.057 52.2871 118.591C55.3861 117.097 58.8586 116.35 62.7046 116.35C65.6929 116.35 68.3353 116.792 70.6318 117.678C72.9561 118.535 74.8652 119.822 76.3594 121.538C77.6598 123.032 78.5729 124.816 79.0986 126.892C79.652 128.967 79.9287 132.301 79.9287 136.894V163H71.7109V136.562C71.7109 131.748 70.867 128.344 69.1792 126.352C67.519 124.332 64.7383 123.322 60.8369 123.322C55.8564 123.322 51.8029 124.844 48.6763 127.888C45.5496 130.931 43.9863 134.93 43.9863 139.882V163H35.7271ZM100.681 111.577H92.4629V101.616H100.681V111.577ZM92.4629 163V117.512H100.681V163H92.4629ZM113.256 163V117.512H121.433V125.356C123.923 122.312 126.717 120.057 129.816 118.591C132.915 117.097 136.388 116.35 140.234 116.35C143.222 116.35 145.865 116.792 148.161 117.678C150.485 118.535 152.395 119.822 153.889 121.538C155.189 123.032 156.102 124.816 156.628 126.892C157.181 128.967 157.458 132.301 157.458 136.894V163H149.24V136.562C149.24 131.748 148.396 128.344 146.708 126.352C145.048 124.332 142.268 123.322 138.366 123.322C133.386 123.322 129.332 124.844 126.206 127.888C123.079 130.931 121.516 134.93 121.516 139.882V163H113.256ZM175.097 140.297C175.097 145.472 176.591 149.539 179.58 152.5C182.596 155.432 186.732 156.899 191.989 156.899C197.246 156.899 201.397 155.419 204.44 152.458C207.484 149.47 209.006 145.416 209.006 140.297C209.006 135.151 207.484 131.097 204.44 128.137C201.397 125.148 197.246 123.654 191.989 123.654C186.76 123.654 182.637 125.135 179.621 128.095C176.605 131.056 175.097 135.123 175.097 140.297ZM216.643 157.148C216.643 164.84 214.623 170.429 210.583 173.916C206.571 177.402 200.124 179.145 191.242 179.145C184.657 179.145 179.497 177.886 175.761 175.368C172.026 172.85 169.923 169.212 169.453 164.453H178.75C179.165 166.915 180.41 168.741 182.485 169.931C184.588 171.149 187.535 171.757 191.325 171.757C197.44 171.757 201.798 170.692 204.399 168.562C207 166.431 208.3 162.848 208.3 157.812V156.276C205.976 158.96 203.389 160.939 200.539 162.211C197.717 163.484 194.479 164.121 190.827 164.121C183.55 164.121 177.657 161.921 173.146 157.521C168.664 153.122 166.423 147.381 166.423 140.297C166.423 133.242 168.678 127.5 173.188 123.073C177.698 118.646 183.536 116.433 190.703 116.433C194.687 116.433 198.16 117.152 201.12 118.591C204.108 120.03 206.502 122.132 208.3 124.899V117.512H216.643V157.148Z" fill="white"/>
</svg>
